STARTFONT 2.1
COMMENT
COMMENT Converted from OpenType font "Pokemon Hollow.ttf" by "otf2bdf 3.0".
COMMENT
FONT -FreeType-Pokemon Hollow-Medium-R-Normal--17-120-100-100-P-115-ISO10646-1
SIZE 12 100 100
FONTBOUNDINGBOX 28 27 -5 -7
STARTPROPERTIES 19
FOUNDRY "FreeType"
FAMILY_NAME "Pokemon Hollow"
WEIGHT_NAME "Medium"
SLANT "R"
SETWIDTH_NAME "Normal"
ADD_STYLE_NAME ""
PIXEL_SIZE 17
POINT_SIZE 120
RESOLUTION_X 100
RESOLUTION_Y 100
SPACING "P"
AVERAGE_WIDTH 115
CHARSET_REGISTRY "ISO10646"
CHARSET_ENCODING "1"
FONT_ASCENT 17
FONT_DESCENT 6
COPYRIGHT "-FreeType-Pokemon Hollow-Medium-R-Normal--17-120-100-100-P-115-ISO10646-1"
_OTF_FONTFILE "Pokemon Hollow.ttf"
_OTF_PSNAME "PokemonHollowNormal"
ENDPROPERTIES
CHARS 194
STARTCHAR 0020
ENCODING 32
SWIDTH 480 0
DWIDTH 8 0
BBX 0 0 0 0
BITMAP
ENDCHAR
STARTCHAR 0021
ENCODING 33
SWIDTH 240 0
DWIDTH 4 0
BBX 5 16 -1 0
BITMAP
18
E8
88
88
88
88
88
50
50
70
00
00
30
48
48
30
ENDCHAR
STARTCHAR 0022
ENCODING 34
SWIDTH 480 0
DWIDTH 8 0
BBX 9 5 -1 9
BITMAP
6300
9480
9480
5280
7380
ENDCHAR
STARTCHAR 0023
ENCODING 35
SWIDTH 540 0
DWIDTH 9 0
BBX 10 10 -1 5
BITMAP
1D80
1A80
1A80
76C0
8040
6E80
EE80
8080
EC80
7700
ENDCHAR
STARTCHAR 0024
ENCODING 36
SWIDTH 540 0
DWIDTH 9 0
BBX 13 18 -2 -2
BITMAP
0300
0500
1C80
6078
4610
49F0
4410
2200
1180
0C40
0320
7090
8F10
8010
6020
19C0
0A00
0600
ENDCHAR
STARTCHAR 0026
ENCODING 38
SWIDTH 660 0
DWIDTH 11 0
BBX 13 16 -1 -1
BITMAP
0780
1C40
2038
2008
2F08
28F0
1400
2380
4C80
9380
9000
8800
87F0
4010
39E0
0E00
ENDCHAR
STARTCHAR 0027
ENCODING 39
SWIDTH 240 0
DWIDTH 4 0
BBX 4 5 0 9
BITMAP
60
90
90
50
70
ENDCHAR
STARTCHAR 0028
ENCODING 40
SWIDTH 420 0
DWIDTH 7 0
BBX 8 17 0 -3
BITMAP
01
07
0A
32
24
48
88
90
90
90
90
90
48
44
22
12
0C
ENDCHAR
STARTCHAR 0029
ENCODING 41
SWIDTH 420 0
DWIDTH 7 0
BBX 8 17 -1 -3
BITMAP
80
E0
90
88
64
22
12
09
09
09
09
12
32
24
48
48
70
ENDCHAR
STARTCHAR 002A
ENCODING 42
SWIDTH 420 0
DWIDTH 7 0
BBX 9 8 -1 7
BITMAP
1C00
7500
9680
6300
2400
4A00
7500
2200
ENDCHAR
STARTCHAR 002B
ENCODING 43
SWIDTH 480 0
DWIDTH 8 0
BBX 8 8 0 3
BITMAP
1C
14
17
E1
E7
28
28
18
ENDCHAR
STARTCHAR 002C
ENCODING 44
SWIDTH 420 0
DWIDTH 7 0
BBX 7 5 -1 -3
BITMAP
0E
14
68
90
70
ENDCHAR
STARTCHAR 002D
ENCODING 45
SWIDTH 480 0
DWIDTH 8 0
BBX 8 3 0 6
BITMAP
7F
81
FF
ENDCHAR
STARTCHAR 002E
ENCODING 46
SWIDTH 240 0
DWIDTH 4 0
BBX 4 4 0 0
BITMAP
60
90
90
60
ENDCHAR
STARTCHAR 002F
ENCODING 47
SWIDTH 720 0
DWIDTH 12 0
BBX 14 17 -1 -3
BITMAP
007C
0048
0088
0110
0120
0220
0440
0480
0880
0900
1100
2200
2400
4400
4800
9000
F000
ENDCHAR
STARTCHAR 0030
ENCODING 48
SWIDTH 540 0
DWIDTH 9 0
BBX 11 13 -1 0
BITMAP
1F00
2080
4040
8020
8E20
9120
9120
9120
8E20
8040
4040
2080
1F00
ENDCHAR
STARTCHAR 0031
ENCODING 49
SWIDTH 300 0
DWIDTH 5 0
BBX 6 15 -1 0
BITMAP
04
7C
84
E4
24
24
24
24
24
24
24
24
24
24
3C
ENDCHAR
STARTCHAR 0032
ENCODING 50
SWIDTH 600 0
DWIDTH 10 0
BBX 12 16 -1 -2
BITMAP
0EC0
7020
8010
8390
7CA0
0120
0640
1880
2300
4C00
9000
9000
A3E0
9C20
87C0
F800
ENDCHAR
STARTCHAR 0033
ENCODING 51
SWIDTH 660 0
DWIDTH 11 0
BBX 13 14 -1 0
BITMAP
0F80
7040
8020
83A0
BD40
4240
0C20
0990
0E50
0048
0088
7F10
4010
3FE0
ENDCHAR
STARTCHAR 0034
ENCODING 52
SWIDTH 540 0
DWIDTH 9 0
BBX 10 16 -1 -3
BITMAP
01C0
F240
9440
9440
9440
A440
9840
C040
3C80
0480
0480
0480
0480
0480
0480
0780
ENDCHAR
STARTCHAR 0035
ENCODING 53
SWIDTH 600 0
DWIDTH 10 0
BBX 13 14 -2 0
BITMAP
0070
FF90
8060
9F80
9000
53C0
4C20
2790
1848
0048
0088
7F10
4010
3FE0
ENDCHAR
STARTCHAR 0036
ENCODING 54
SWIDTH 540 0
DWIDTH 9 0
BBX 11 15 -1 0
BITMAP
00C0
0380
0C80
1100
2600
2C00
4600
4180
8640
9940
9120
9120
8E40
4040
3F80
ENDCHAR
STARTCHAR 0037
ENCODING 55
SWIDTH 720 0
DWIDTH 12 0
BBX 14 17 -1 -3
BITMAP
FC00
83FC
8004
7FC4
0048
0088
0090
0090
0110
0120
0220
0240
0240
0440
0480
0880
0F00
ENDCHAR
STARTCHAR 0038
ENCODING 56
SWIDTH 600 0
DWIDTH 10 0
BBX 12 14 -1 0
BITMAP
1F80
6040
4640
5940
4E40
3080
2040
4320
8CA0
9090
9110
8E20
4040
3F80
ENDCHAR
STARTCHAR 0039
ENCODING 57
SWIDTH 600 0
DWIDTH 10 0
BBX 11 19 0 -5
BITMAP
1F00
60C0
8E20
9120
9120
9220
4C40
2040
1C40
0480
0880
0900
0900
1200
2400
2400
4800
5000
6000
ENDCHAR
STARTCHAR 003A
ENCODING 58
SWIDTH 540 0
DWIDTH 9 0
BBX 6 8 1 0
BITMAP
60
90
60
00
18
24
24
18
ENDCHAR
STARTCHAR 003B
ENCODING 59
SWIDTH 420 0
DWIDTH 7 0
BBX 6 11 -1 -3
BITMAP
18
24
24
18
00
00
00
1C
68
90
70
ENDCHAR
STARTCHAR 003C
ENCODING 60
SWIDTH 480 0
DWIDTH 8 0
BBX 10 8 0 4
BITMAP
00C0
0740
18C0
E700
6300
1880
0680
0180
ENDCHAR
STARTCHAR 003D
ENCODING 61
SWIDTH 480 0
DWIDTH 8 0
BBX 8 7 0 4
BITMAP
01
FF
81
FF
03
FD
FF
ENDCHAR
STARTCHAR 003E
ENCODING 62
SWIDTH 480 0
DWIDTH 8 0
BBX 10 8 -1 4
BITMAP
C000
B800
4600
39C0
1180
6600
5800
6000
ENDCHAR
STARTCHAR 003F
ENCODING 63
SWIDTH 600 0
DWIDTH 10 0
BBX 12 14 -1 0
BITMAP
0EC0
F030
8390
7CA0
0140
02C0
0D00
1200
0C00
0000
0600
0900
0900
0600
ENDCHAR
STARTCHAR 0040
ENCODING 64
SWIDTH 660 0
DWIDTH 11 0
BBX 13 13 -1 0
BITMAP
0F80
3060
4010
8308
8488
8988
8A08
8A10
85E0
4300
2100
1100
0F00
ENDCHAR
STARTCHAR 0041
ENCODING 65
SWIDTH 540 0
DWIDTH 9 0
BBX 17 19 -4 -5
BITMAP
004000
00C000
014000
012000
022000
021000
049000
04C800
080800
080800
11E400
122400
222200
241200
441100
480900
F80900
000480
000380
ENDCHAR
STARTCHAR 0042
ENCODING 66
SWIDTH 600 0
DWIDTH 10 0
BBX 13 14 -1 0
BITMAP
0EC0
7020
8010
87A0
6540
2640
2020
1190
1248
1248
0988
0810
0820
0FC0
ENDCHAR
STARTCHAR 0043
ENCODING 67
SWIDTH 600 0
DWIDTH 10 0
BBX 12 13 -1 0
BITMAP
0F80
3060
4010
8010
8760
8880
8800
88C0
8720
8010
4020
2040
1F80
ENDCHAR
STARTCHAR 0044
ENCODING 68
SWIDTH 600 0
DWIDTH 10 0
BBX 12 15 -1 -1
BITMAP
1F80
E040
8020
8720
4490
2490
2490
2490
2490
2520
2620
2040
2040
2180
1E00
ENDCHAR
STARTCHAR 0045
ENCODING 69
SWIDTH 540 0
DWIDTH 9 0
BBX 14 17 -1 -2
BITMAP
1FC0
E040
8040
8F80
C800
4840
4FC0
4040
4380
4C00
4800
4800
4800
4FFC
4004
4004
7FFC
ENDCHAR
STARTCHAR 0046
ENCODING 70
SWIDTH 540 0
DWIDTH 9 0
BBX 10 17 -1 -3
BITMAP
07C0
F840
8040
8380
CC00
4800
4F80
4080
4080
4F00
4800
4800
4800
4800
4800
4800
7800
ENDCHAR
STARTCHAR 0047
ENCODING 71
SWIDTH 600 0
DWIDTH 10 0
BBX 12 16 -1 -3
BITMAP
0F80
3060
4010
8010
8720
88C0
8980
8A70
8710
8010
4010
2010
1F90
0120
0120
01E0
ENDCHAR
STARTCHAR 0048
ENCODING 72
SWIDTH 540 0
DWIDTH 9 0
BBX 12 19 -2 -4
BITMAP
E000
9DF0
6510
2510
2510
2510
2710
2010
2010
2710
2510
2510
2510
2490
2490
2490
2490
3C90
0070
ENDCHAR
STARTCHAR 0049
ENCODING 73
SWIDTH 600 0
DWIDTH 10 0
BBX 11 15 -1 0
BITMAP
00C0
7F40
8040
80C0
9300
7400
1400
1400
1400
1400
1400
13E0
E020
8020
FFE0
ENDCHAR
STARTCHAR 004A
ENCODING 74
SWIDTH 660 0
DWIDTH 11 0
BBX 12 15 0 0
BITMAP
01F0
0110
0110
0110
0110
0110
0110
0910
F910
8910
8920
8620
8040
6040
1F80
ENDCHAR
STARTCHAR 004B
ENCODING 75
SWIDTH 540 0
DWIDTH 9 0
BBX 14 17 -1 -2
BITMAP
1A00
ED00
C880
4080
4100
4200
4200
4400
4400
4300
4080
4040
4430
4708
44C4
4434
7C0C
ENDCHAR
STARTCHAR 004C
ENCODING 76
SWIDTH 540 0
DWIDTH 9 0
BBX 14 18 -1 -3
BITMAP
0800
7800
8800
C800
4800
4800
4800
4800
4800
4800
4800
4800
4800
4800
4FFC
4004
4004
7FFC
ENDCHAR
STARTCHAR 004D
ENCODING 77
SWIDTH 720 0
DWIDTH 12 0
BBX 13 14 0 -1
BITMAP
01C0
7A40
8640
8020
8020
8020
8020
8020
8910
8D10
8B10
8910
F908
00F8
ENDCHAR
STARTCHAR 004E
ENCODING 78
SWIDTH 540 0
DWIDTH 9 0
BBX 12 19 -2 -4
BITMAP
F800
8FF0
6610
2610
2210
2210
2110
2110
2010
2410
2410
2410
2610
2610
2510
2510
2510
3C90
0070
ENDCHAR
STARTCHAR 004F
ENCODING 79
SWIDTH 720 0
DWIDTH 12 0
BBX 14 14 -1 0
BITMAP
03C0
0C30
1008
2184
4124
4144
81C4
8004
8008
8008
8010
4020
20C0
1F00
ENDCHAR
STARTCHAR 0050
ENCODING 80
SWIDTH 600 0
DWIDTH 10 0
BBX 12 15 -1 -1
BITMAP
0EC0
5020
8010
83B0
64A0
2540
1280
1100
1200
0A00
0900
0900
0500
0500
0200
ENDCHAR
STARTCHAR 0051
ENCODING 81
SWIDTH 540 0
DWIDTH 9 0
BBX 11 14 0 -2
BITMAP
0E00
3100
4080
4680
8940
9140
9140
9280
8C80
8080
4040
3F20
00A0
0040
ENDCHAR
STARTCHAR 0052
ENCODING 82
SWIDTH 600 0
DWIDTH 10 0
BBX 12 15 -1 -1
BITMAP
0F80
7060
8020
8640
6940
2AC0
2440
2720
2520
14A0
14A0
14A0
1250
1250
0C20
ENDCHAR
STARTCHAR 0053
ENCODING 83
SWIDTH 540 0
DWIDTH 9 0
BBX 13 14 -2 0
BITMAP
1F80
6078
4610
49F0
4410
2200
1180
0C40
0320
7090
8F10
8010
6020
1FC0
ENDCHAR
STARTCHAR 0054
ENCODING 84
SWIDTH 540 0
DWIDTH 9 0
BBX 14 14 -2 0
BITMAP
FFFC
8004
8004
FC78
0440
0440
0440
0440
0440
0440
0440
0440
0440
07C0
ENDCHAR
STARTCHAR 0055
ENCODING 85
SWIDTH 600 0
DWIDTH 10 0
BBX 13 15 -2 0
BITMAP
FC00
84F8
4488
4488
4488
4488
4488
4488
4488
4490
4510
2310
2020
1040
0F80
ENDCHAR
STARTCHAR 0056
ENCODING 86
SWIDTH 720 0
DWIDTH 12 0
BBX 15 15 -1 -1
BITMAP
F83E
4422
2444
2444
2244
1248
1288
1188
0890
0890
0810
0420
0420
0420
03C0
ENDCHAR
STARTCHAR 0057
ENCODING 87
SWIDTH 720 0
DWIDTH 12 0
BBX 13 16 -1 -1
BITMAP
00F8
0088
F908
8908
8910
8910
8F10
8510
4010
4010
4010
4010
2210
2610
25F0
3C00
ENDCHAR
STARTCHAR 0058
ENCODING 88
SWIDTH 720 0
DWIDTH 12 0
BBX 14 17 -1 -3
BITMAP
787C
4448
2488
2310
1120
0820
0840
0480
0440
0840
1020
1320
2510
4490
4888
9078
F000
ENDCHAR
STARTCHAR 0059
ENCODING 89
SWIDTH 720 0
DWIDTH 12 0
BBX 14 17 -1 -3
BITMAP
F800
843C
4444
2244
1248
1188
0990
0890
0410
0220
0220
0240
0440
0440
0480
0880
0F00
ENDCHAR
STARTCHAR 005A
ENCODING 90
SWIDTH 720 0
DWIDTH 12 0
BBX 14 16 -1 -1
BITMAP
FFFC
8008
8008
7F10
0210
0220
0420
0440
0840
0880
1080
1100
1100
20FC
2004
7FFC
ENDCHAR
STARTCHAR 005B
ENCODING 91
SWIDTH 420 0
DWIDTH 7 0
BBX 8 18 0 -3
BITMAP
07
F9
81
87
88
88
88
88
88
88
88
88
88
88
8E
82
82
FC
ENDCHAR
STARTCHAR 005C
ENCODING 92
SWIDTH 720 0
DWIDTH 12 0
BBX 12 16 0 -2
BITMAP
F000
8800
4800
4400
2400
2200
1200
1100
0900
0880
0480
0240
0220
0120
0110
00F0
ENDCHAR
STARTCHAR 005D
ENCODING 93
SWIDTH 420 0
DWIDTH 7 0
BBX 8 17 -1 -2
BITMAP
03
7D
81
81
79
09
09
09
09
09
09
09
09
71
81
81
7E
ENDCHAR
STARTCHAR 005E
ENCODING 94
SWIDTH 540 0
DWIDTH 9 0
BBX 10 4 0 11
BITMAP
1C00
E380
BE40
C1C0
ENDCHAR
STARTCHAR 005F
ENCODING 95
SWIDTH 600 0
DWIDTH 10 0
BBX 12 2 -1 -1
BITMAP
7FF0
FFE0
ENDCHAR
STARTCHAR 0060
ENCODING 96
SWIDTH 540 0
DWIDTH 9 0
BBX 6 4 1 10
BITMAP
60
98
84
78
ENDCHAR
STARTCHAR 0061
ENCODING 97
SWIDTH 540 0
DWIDTH 9 0
BBX 10 11 0 0
BITMAP
00C0
0F40
3040
4840
8840
8C40
8440
8040
8040
4040
3FC0
ENDCHAR
STARTCHAR 0062
ENCODING 98
SWIDTH 540 0
DWIDTH 9 0
BBX 11 15 -1 0
BITMAP
1800
6800
C800
4800
4800
4D80
4040
46A0
47A0
4720
4020
4040
4040
4080
7E00
ENDCHAR
STARTCHAR 0063
ENCODING 99
SWIDTH 480 0
DWIDTH 8 0
BBX 10 10 -1 0
BITMAP
0F00
3080
4640
9980
9000
9000
93C0
8C80
4080
3F00
ENDCHAR
STARTCHAR 0064
ENCODING 100
SWIDTH 540 0
DWIDTH 9 0
BBX 10 17 0 0
BITMAP
00C0
0340
0240
0240
0240
0240
0240
0E40
3040
4440
8C40
8C40
8440
8040
8040
4040
3FC0
ENDCHAR
STARTCHAR 0065
ENCODING 101
SWIDTH 540 0
DWIDTH 9 0
BBX 9 9 0 0
BITMAP
0E00
3180
5900
AA00
AA00
B780
8C80
8080
7F00
ENDCHAR
STARTCHAR 0066
ENCODING 102
SWIDTH 600 0
DWIDTH 10 0
BBX 12 17 -1 -2
BITMAP
03C0
0C30
3190
2260
2200
E380
8080
8080
E380
2200
2200
2200
2200
2200
2200
2200
3C00
ENDCHAR
STARTCHAR 0067
ENCODING 103
SWIDTH 540 0
DWIDTH 9 0
BBX 10 18 0 -7
BITMAP
0040
0FC0
2040
4440
8C40
8E40
8640
8040
8040
4040
3E40
0240
4240
A240
9440
8C80
4080
3F00
ENDCHAR
STARTCHAR 0068
ENCODING 104
SWIDTH 600 0
DWIDTH 10 0
BBX 11 16 0 0
BITMAP
3000
D000
9000
9000
9000
9000
8B00
8080
8440
8A40
8A20
8920
8920
8920
8920
F9C0
ENDCHAR
STARTCHAR 0069
ENCODING 105
SWIDTH 240 0
DWIDTH 4 0
BBX 5 16 -1 -1
BITMAP
30
48
30
00
08
78
88
C8
48
48
48
48
48
48
48
78
ENDCHAR
STARTCHAR 006A
ENCODING 106
SWIDTH 480 0
DWIDTH 8 0
BBX 9 22 0 -7
BITMAP
0300
0480
0300
0000
0080
0380
0C80
0480
0480
0480
0480
0480
0480
0480
0680
0280
4280
A280
9480
8D00
4100
3E00
ENDCHAR
STARTCHAR 006B
ENCODING 107
SWIDTH 540 0
DWIDTH 9 0
BBX 12 17 -1 -2
BITMAP
1800
E800
C800
4800
4800
4800
4800
49F0
4E20
40C0
4100
4100
44C0
4620
4590
4450
7C30
ENDCHAR
STARTCHAR 006C
ENCODING 108
SWIDTH 240 0
DWIDTH 4 0
BBX 5 17 -1 -2
BITMAP
10
70
90
D0
50
48
48
48
48
48
48
48
48
48
48
48
78
ENDCHAR
STARTCHAR 006D
ENCODING 109
SWIDTH 840 0
DWIDTH 14 0
BBX 15 10 0 0
BITMAP
FFF0
8008
8444
84A4
8C62
8A62
8A52
8A52
8A52
7B9C
ENDCHAR
STARTCHAR 006E
ENCODING 110
SWIDTH 600 0
DWIDTH 10 0
BBX 11 10 0 0
BITMAP
FF00
8080
8440
8A40
8A20
8920
8920
8920
8920
79C0
ENDCHAR
STARTCHAR 006F
ENCODING 111
SWIDTH 540 0
DWIDTH 9 0
BBX 10 10 0 0
BITMAP
0E00
3180
4480
8D40
8E40
8640
8080
8080
4100
3E00
ENDCHAR
STARTCHAR 0070
ENCODING 112
SWIDTH 540 0
DWIDTH 9 0
BBX 11 17 -1 -7
BITMAP
0800
7F00
80C0
44A0
4F20
4720
4020
4040
4080
4F00
4800
4800
4800
4800
4800
4800
7800
ENDCHAR
STARTCHAR 0071
ENCODING 113
SWIDTH 540 0
DWIDTH 9 0
BBX 10 16 0 -6
BITMAP
0FC0
3040
4C40
8E40
8640
8040
8040
4040
3E40
0240
0240
0240
0240
0240
0240
03C0
ENDCHAR
STARTCHAR 0072
ENCODING 114
SWIDTH 600 0
DWIDTH 10 0
BBX 10 10 0 0
BITMAP
FF80
8040
8640
8B80
8800
8800
8800
8800
8800
F800
ENDCHAR
STARTCHAR 0073
ENCODING 115
SWIDTH 600 0
DWIDTH 10 0
BBX 11 10 -1 0
BITMAP
3F80
CC60
93E0
8E00
81C0
6040
5F20
BF20
8040
7F80
ENDCHAR
STARTCHAR 0074
ENCODING 116
SWIDTH 600 0
DWIDTH 10 0
BBX 12 16 -2 0
BITMAP
0200
0E00
1200
1200
1200
F200
81C0
8040
73C0
1200
1200
1270
1250
1190
0820
07C0
ENDCHAR
STARTCHAR 0075
ENCODING 117
SWIDTH 600 0
DWIDTH 10 0
BBX 11 10 0 0
BITMAP
C000
B9C0
8920
8920
8920
8A20
8A40
4440
2080
1F00
ENDCHAR
STARTCHAR 0076
ENCODING 118
SWIDTH 720 0
DWIDTH 12 0
BBX 12 11 -1 -1
BITMAP
F8F0
8910
4510
4520
2620
2220
2040
1040
1080
0880
0F80
ENDCHAR
STARTCHAR 0077
ENCODING 119
SWIDTH 1020 0
DWIDTH 17 0
BBX 19 11 -1 -1
BITMAP
F9E1C0
891220
451220
450C40
260C40
220480
200080
104080
10A100
08A100
0F9E00
ENDCHAR
STARTCHAR 0078
ENCODING 120
SWIDTH 720 0
DWIDTH 12 0
BBX 12 11 0 -1
BITMAP
F0F0
8920
4A20
2440
2080
1100
1080
2080
4640
4A20
F1F0
ENDCHAR
STARTCHAR 0079
ENCODING 121
SWIDTH 660 0
DWIDTH 11 0
BBX 12 16 -1 -7
BITMAP
3000
C8F0
4890
4510
2520
2220
1040
1040
0840
0480
0880
0900
1100
1200
1200
0E00
ENDCHAR
STARTCHAR 007A
ENCODING 122
SWIDTH 720 0
DWIDTH 12 0
BBX 13 11 -1 -1
BITMAP
FFF8
8010
8020
7E20
0240
0480
0900
1200
23F8
4008
7FF8
ENDCHAR
STARTCHAR 007B
ENCODING 123
SWIDTH 420 0
DWIDTH 7 0
BBX 8 17 0 -3
BITMAP
01
07
0A
32
24
48
88
90
90
90
90
90
48
44
22
12
0C
ENDCHAR
STARTCHAR 007C
ENCODING 124
SWIDTH 300 0
DWIDTH 5 0
BBX 5 21 0 -5
BITMAP
78
88
88
88
88
88
88
88
88
88
88
88
88
88
88
88
88
88
88
88
F8
ENDCHAR
STARTCHAR 007D
ENCODING 125
SWIDTH 420 0
DWIDTH 7 0
BBX 8 17 -1 -3
BITMAP
80
E0
90
88
64
22
12
09
09
09
09
12
32
24
48
48
70
ENDCHAR
STARTCHAR 007E
ENCODING 126
SWIDTH 540 0
DWIDTH 9 0
BBX 9 4 0 11
BITMAP
7000
8F80
F080
0F00
ENDCHAR
STARTCHAR 00A1
ENCODING 161
SWIDTH 240 0
DWIDTH 4 0
BBX 5 16 0 -1
BITMAP
60
90
90
60
00
00
70
90
90
90
90
90
90
88
98
E0
ENDCHAR
STARTCHAR 00A2
ENCODING 162
SWIDTH 600 0
DWIDTH 10 0
BBX 12 16 -1 -1
BITMAP
0F00
0900
30C0
4030
8010
8720
88C0
8800
8800
88C0
8720
4010
4020
2040
1980
0F00
ENDCHAR
STARTCHAR 00A3
ENCODING 163
SWIDTH 600 0
DWIDTH 10 0
BBX 15 18 -1 -3
BITMAP
01C0
0E20
1010
2310
22E0
2400
E380
8080
8080
E380
2400
2400
2400
2400
27FE
2002
2002
3FFE
ENDCHAR
STARTCHAR 00A5
ENCODING 165
SWIDTH 720 0
DWIDTH 12 0
BBX 14 17 -1 -3
BITMAP
FC00
843C
6224
2244
1148
1188
0890
1C8C
1E1C
0220
1E38
1008
1C78
0480
0480
0880
0F00
ENDCHAR
STARTCHAR 00A6
ENCODING 166
SWIDTH 300 0
DWIDTH 5 0
BBX 5 22 0 -5
BITMAP
08
F8
88
88
88
88
88
88
F8
00
78
88
88
88
88
88
88
88
88
88
88
F0
ENDCHAR
STARTCHAR 00A8
ENCODING 168
SWIDTH 540 0
DWIDTH 9 0
BBX 9 4 0 11
BITMAP
6300
9480
9480
6300
ENDCHAR
STARTCHAR 00AB
ENCODING 171
SWIDTH 960 0
DWIDTH 16 0
BBX 17 8 0 4
BITMAP
00C080
074780
18F880
E78700
636200
189980
068680
018100
ENDCHAR
STARTCHAR 00AD
ENCODING 173
SWIDTH 360 0
DWIDTH 6 0
BBX 7 3 0 6
BITMAP
3E
C2
FE
ENDCHAR
STARTCHAR 00B1
ENCODING 177
SWIDTH 480 0
DWIDTH 8 0
BBX 8 10 0 1
BITMAP
1C
14
27
C1
E7
28
28
38
FF
FF
ENDCHAR
STARTCHAR 00B4
ENCODING 180
SWIDTH 540 0
DWIDTH 9 0
BBX 6 4 1 10
BITMAP
18
64
84
78
ENDCHAR
STARTCHAR 00B5
ENCODING 181
SWIDTH 600 0
DWIDTH 10 0
BBX 11 15 0 -5
BITMAP
C000
B9C0
8920
8920
8920
8A20
8A40
8440
8080
9F00
9000
9000
9000
9000
F000
ENDCHAR
STARTCHAR 00B7
ENCODING 183
SWIDTH 240 0
DWIDTH 4 0
BBX 4 4 0 6
BITMAP
60
90
90
60
ENDCHAR
STARTCHAR 00B8
ENCODING 184
SWIDTH 540 0
DWIDTH 9 0
BBX 6 6 2 -4
BITMAP
70
28
24
C4
48
30
ENDCHAR
STARTCHAR 00BB
ENCODING 187
SWIDTH 960 0
DWIDTH 16 0
BBX 17 8 -1 4
BITMAP
C0C000
B8B000
46CE00
397980
11A100
66C600
589800
606000
ENDCHAR
STARTCHAR 00BF
ENCODING 191
SWIDTH 540 0
DWIDTH 9 0
BBX 11 14 -1 0
BITMAP
0600
0A00
0600
0000
0200
0500
1B00
2400
4800
50C0
9F20
8020
80C0
7F00
ENDCHAR
STARTCHAR 00C0
ENCODING 192
SWIDTH 540 0
DWIDTH 9 0
BBX 17 23 -4 -4
BITMAP
01C000
023000
019000
006000
004000
00C000
014000
012000
022000
021000
049000
04C800
080800
080800
11E400
122400
222200
241200
441100
480900
F80900
000480
000380
ENDCHAR
STARTCHAR 00C1
ENCODING 193
SWIDTH 540 0
DWIDTH 9 0
BBX 17 23 -4 -4
BITMAP
00E000
031000
02E000
010000
004000
00C000
014000
012000
022000
021000
049000
04C800
080800
080800
11E400
122400
222200
241200
441100
480900
F80900
000480
000380
ENDCHAR
STARTCHAR 00C2
ENCODING 194
SWIDTH 540 0
DWIDTH 9 0
BBX 17 23 -4 -5
BITMAP
03F000
0C8800
0F7C00
000000
008000
00C000
014000
012000
022000
022000
049000
099000
080800
110800
12C400
222400
242400
441200
481200
880900
F00900
000900
000780
ENDCHAR
STARTCHAR 00C3
ENCODING 195
SWIDTH 540 0
DWIDTH 9 0
BBX 17 24 -4 -5
BITMAP
030800
0CF800
0F0800
00F000
000000
004000
00C000
014000
012000
022000
021000
049000
04C800
080800
080800
11E400
122400
222200
241200
441100
480900
F80900
000480
000380
ENDCHAR
STARTCHAR 00C4
ENCODING 196
SWIDTH 600 0
DWIDTH 10 0
BBX 16 24 -3 -5
BITMAP
0630
0948
0948
0630
0000
0080
0180
0140
0240
0220
04A0
05A0
0990
0810
1108
12C8
2224
2424
4424
4812
8812
F009
0009
0007
ENDCHAR
STARTCHAR 00C5
ENCODING 197
SWIDTH 540 0
DWIDTH 9 0
BBX 17 24 -4 -5
BITMAP
00C000
012000
012000
00C000
000000
004000
00C000
014000
012000
022000
021000
045000
04C800
080800
090400
12E400
122400
221200
241200
441100
480900
F80880
000480
000380
ENDCHAR
STARTCHAR 00C6
ENCODING 198
SWIDTH 900 0
DWIDTH 15 0
BBX 23 18 -4 -2
BITMAP
007FE0
008020
010020
0107C0
020800
020820
040FE0
048020
08C1C0
080E00
11C800
122400
222400
2427FE
442002
482002
881FFA
F00004
ENDCHAR
STARTCHAR 00C7
ENCODING 199
SWIDTH 540 0
DWIDTH 9 0
BBX 12 17 -1 -4
BITMAP
1F00
20C0
4020
8030
8740
8880
8800
8880
8760
8020
4040
2080
1B00
0580
0880
0900
0600
ENDCHAR
STARTCHAR 00C8
ENCODING 200
SWIDTH 540 0
DWIDTH 9 0
BBX 14 22 -1 -3
BITMAP
0800
1400
1300
0D00
0200
1FC0
E040
8040
8F80
C800
4840
4FC0
4040
4380
4C00
4800
4800
4800
4FFC
4004
4004
7FFC
ENDCHAR
STARTCHAR 00C9
ENCODING 201
SWIDTH 540 0
DWIDTH 9 0
BBX 14 22 -1 -3
BITMAP
0200
0D00
3100
1E00
0000
1FC0
E040
8040
8F80
C800
4840
4FC0
4040
4380
4C00
4800
4800
4800
4FFC
4004
4004
7FFC
ENDCHAR
STARTCHAR 00CA
ENCODING 202
SWIDTH 540 0
DWIDTH 9 0
BBX 14 21 -1 -2
BITMAP
3F80
4640
79C0
0000
1FC0
E040
8040
8F80
C800
4840
4FC0
4040
4380
4C00
4800
4800
4800
4FFC
4004
4004
7FFC
ENDCHAR
STARTCHAR 00CB
ENCODING 203
SWIDTH 540 0
DWIDTH 9 0
BBX 14 22 -1 -3
BITMAP
30C0
4940
4940
30C0
0000
1FC0
E040
8040
8F80
C800
4840
4FC0
4040
4380
4C00
4800
4800
4800
4FFC
4004
4004
7FFC
ENDCHAR
STARTCHAR 00CC
ENCODING 204
SWIDTH 600 0
DWIDTH 10 0
BBX 11 19 -1 0
BITMAP
0800
1600
2180
1F00
00C0
7F40
8040
80C0
9300
7400
1400
1400
1400
1400
1400
13E0
E020
8020
FFE0
ENDCHAR
STARTCHAR 00CD
ENCODING 205
SWIDTH 600 0
DWIDTH 10 0
BBX 11 19 -1 0
BITMAP
0200
0D00
3080
1F00
00C0
7F40
8040
80C0
9300
7400
1400
1400
1400
1400
1400
13E0
E020
8020
FFE0
ENDCHAR
STARTCHAR 00CE
ENCODING 206
SWIDTH 600 0
DWIDTH 10 0
BBX 11 19 -1 0
BITMAP
0600
39C0
4F20
70E0
00C0
7F40
8040
80C0
9300
7400
1400
1400
1400
1400
1400
13E0
E020
8020
FFE0
ENDCHAR
STARTCHAR 00CF
ENCODING 207
SWIDTH 600 0
DWIDTH 10 0
BBX 10 19 0 0
BITMAP
3180
4A40
4A40
3180
0000
3FC0
C040
8040
8780
7400
1400
1400
1400
1400
1400
17C0
E040
8040
FFC0
ENDCHAR
STARTCHAR 00D0
ENCODING 208
SWIDTH 660 0
DWIDTH 11 0
BBX 12 15 0 -1
BITMAP
1B80
E040
8020
8F20
C890
4890
CE90
8290
8290
C720
4620
4440
2040
2180
3E00
ENDCHAR
STARTCHAR 00D1
ENCODING 209
SWIDTH 540 0
DWIDTH 9 0
BBX 12 23 -2 -4
BITMAP
1C00
23C0
3C20
03C0
F800
8FF0
6610
2610
2210
2210
2110
2110
2010
2410
2410
2410
2610
2610
2510
2510
2510
3C90
0070
ENDCHAR
STARTCHAR 00D2
ENCODING 210
SWIDTH 720 0
DWIDTH 12 0
BBX 14 19 -1 0
BITMAP
1C00
1300
0D00
0200
0000
03C0
0C30
1008
2184
4124
4144
81C4
8004
8008
8008
8010
4020
20C0
1F00
ENDCHAR
STARTCHAR 00D3
ENCODING 211
SWIDTH 720 0
DWIDTH 12 0
BBX 14 20 -1 0
BITMAP
0040
01A0
0620
03C0
0000
0000
03C0
0C30
1008
2184
4124
4144
81C4
8004
8008
8008
8010
4020
20C0
1F00
ENDCHAR
STARTCHAR 00D4
ENCODING 212
SWIDTH 720 0
DWIDTH 12 0
BBX 14 19 -1 0
BITMAP
0FC0
3130
1EF0
0000
0000
03C0
0C30
1008
2184
4124
4144
81C4
8004
8008
8008
8010
4020
20C0
1F00
ENDCHAR
STARTCHAR 00D5
ENCODING 213
SWIDTH 720 0
DWIDTH 12 0
BBX 14 20 -1 0
BITMAP
0610
19F0
1E10
01E0
0000
0000
03C0
0C30
1008
2184
4124
4144
81C4
8004
8008
8008
8010
4020
20C0
1F00
ENDCHAR
STARTCHAR 00D6
ENCODING 214
SWIDTH 720 0
DWIDTH 12 0
BBX 14 20 -1 0
BITMAP
0860
1490
1490
0860
0000
0000
03C0
0C30
1008
2104
4124
4124
81C4
8004
8008
8008
8010
4020
20C0
1F00
ENDCHAR
STARTCHAR 00D7
ENCODING 215
SWIDTH 480 0
DWIDTH 8 0
BBX 9 7 0 5
BITMAP
0100
E280
9D00
6200
4100
8880
7700
ENDCHAR
STARTCHAR 00D8
ENCODING 216
SWIDTH 720 0
DWIDTH 12 0
BBX 14 15 -1 0
BITMAP
03FC
0C04
1008
2184
4124
4144
81C4
8004
8008
8008
8010
4020
80C0
BF00
4000
ENDCHAR
STARTCHAR 00D9
ENCODING 217
SWIDTH 600 0
DWIDTH 10 0
BBX 13 18 -2 1
BITMAP
0E00
1180
0E80
FD00
84F8
4488
4488
4488
4488
4488
4488
4488
4490
4510
2310
2020
1040
0F80
ENDCHAR
STARTCHAR 00DA
ENCODING 218
SWIDTH 600 0
DWIDTH 10 0
BBX 13 19 -2 0
BITMAP
0100
0700
1880
1700
FC00
84F8
4488
4488
4488
4488
4488
4488
4488
4490
4510
2310
2020
1040
0F80
ENDCHAR
STARTCHAR 00DB
ENCODING 219
SWIDTH 600 0
DWIDTH 10 0
BBX 13 18 -2 0
BITMAP
1F80
2260
3DE0
FC00
84F8
4488
4488
4488
4488
4488
4488
4488
4490
4510
2310
2020
1040
0F80
ENDCHAR
STARTCHAR 00DC
ENCODING 220
SWIDTH 600 0
DWIDTH 10 0
BBX 13 19 -2 0
BITMAP
1840
24A0
24A0
1840
FC00
84F8
4488
4488
4488
4488
4488
4488
4488
4490
4510
2310
2020
1040
0F80
ENDCHAR
STARTCHAR 00DD
ENCODING 221
SWIDTH 720 0
DWIDTH 12 0
BBX 14 22 -1 -3
BITMAP
0100
0680
1880
1700
0800
F800
843C
4444
2244
1248
1188
0990
0890
0410
0220
0220
0240
0440
0440
0480
0880
0F00
ENDCHAR
STARTCHAR 00DF
ENCODING 223
SWIDTH 600 0
DWIDTH 10 0
BBX 11 15 1 -1
BITMAP
1F00
6080
8040
9E80
9480
9980
8040
4640
4920
4920
2620
2540
2580
2400
1E00
ENDCHAR
STARTCHAR 00E0
ENCODING 224
SWIDTH 540 0
DWIDTH 9 0
BBX 10 15 0 0
BITMAP
1000
2C00
4300
3E00
00C0
0F40
3040
4840
8840
8C40
8440
8040
8040
4040
3FC0
ENDCHAR
STARTCHAR 00E1
ENCODING 225
SWIDTH 540 0
DWIDTH 9 0
BBX 10 14 0 1
BITMAP
1E00
6100
3E00
00C0
0F40
3040
4840
8840
8C40
8440
8040
8040
4040
3FC0
ENDCHAR
STARTCHAR 00E2
ENCODING 226
SWIDTH 540 0
DWIDTH 9 0
BBX 10 15 0 1
BITMAP
3F00
CCC0
F3C0
0000
00C0
0F40
3040
4840
8840
8C40
8440
8040
8040
4040
3FC0
ENDCHAR
STARTCHAR 00E3
ENCODING 227
SWIDTH 540 0
DWIDTH 9 0
BBX 10 15 0 0
BITMAP
3000
CF80
7F80
0000
00C0
0F40
3040
4840
8840
8C40
8440
8040
8040
4040
3FC0
ENDCHAR
STARTCHAR 00E4
ENCODING 228
SWIDTH 540 0
DWIDTH 9 0
BBX 10 15 0 0
BITMAP
6300
9280
9280
6100
0040
0FC0
3040
4440
8C40
8C40
8440
8040
8040
4040
3FC0
ENDCHAR
STARTCHAR 00E5
ENCODING 229
SWIDTH 540 0
DWIDTH 9 0
BBX 10 15 0 0
BITMAP
0C00
1200
1200
0C00
0040
0FC0
3040
4840
8C40
8C40
8440
8040
8040
4040
3FC0
ENDCHAR
STARTCHAR 00E6
ENCODING 230
SWIDTH 960 0
DWIDTH 16 0
BBX 16 11 0 0
BITMAP
00C0
0F40
3078
4406
8832
8CD4
8CA8
80D6
8039
4002
3FFC
ENDCHAR
STARTCHAR 00E7
ENCODING 231
SWIDTH 540 0
DWIDTH 9 0
BBX 12 17 -1 -4
BITMAP
1F00
20C0
4020
8030
8740
8880
8800
8880
8760
8020
4040
2080
1B00
0580
0880
0900
0600
ENDCHAR
STARTCHAR 00E8
ENCODING 232
SWIDTH 540 0
DWIDTH 9 0
BBX 9 14 0 0
BITMAP
3000
2C00
4200
3E00
0000
0E00
3180
5900
AA00
AA00
B780
8C80
8080
7F00
ENDCHAR
STARTCHAR 00E9
ENCODING 233
SWIDTH 540 0
DWIDTH 9 0
BBX 9 14 0 0
BITMAP
0C00
3200
4200
3C00
0000
0E00
3180
5900
AA00
AA00
B780
8C80
8080
7F00
ENDCHAR
STARTCHAR 00EA
ENCODING 234
SWIDTH 540 0
DWIDTH 9 0
BBX 10 15 0 0
BITMAP
1C00
E380
BE80
C180
0000
0000
0E00
3180
5900
AD00
AA00
B580
8E40
8080
7F00
ENDCHAR
STARTCHAR 00EB
ENCODING 235
SWIDTH 540 0
DWIDTH 9 0
BBX 10 15 0 0
BITMAP
6300
9480
9480
6300
0000
0000
0E00
3180
5880
AD00
B200
B580
8E40
8080
7F00
ENDCHAR
STARTCHAR 00EC
ENCODING 236
SWIDTH 240 0
DWIDTH 4 0
BBX 8 16 -1 -1
BITMAP
10
2C
23
1E
08
38
C8
C8
48
48
48
48
48
48
48
78
ENDCHAR
STARTCHAR 00ED
ENCODING 237
SWIDTH 240 0
DWIDTH 4 0
BBX 8 15 -1 0
BITMAP
1E
61
3E
08
38
C8
C8
48
48
48
48
48
48
48
78
ENDCHAR
STARTCHAR 00EE
ENCODING 238
SWIDTH 240 0
DWIDTH 4 0
BBX 9 16 -3 -1
BITMAP
3E00
C980
F780
0000
0200
0E00
3200
3200
1200
1200
1200
1200
1200
1200
1200
1E00
ENDCHAR
STARTCHAR 00EF
ENCODING 239
SWIDTH 240 0
DWIDTH 4 0
BBX 9 16 -3 -1
BITMAP
E700
9480
6300
0000
0600
1A00
2200
3200
1200
1200
1200
1200
1200
1200
1200
1E00
ENDCHAR
STARTCHAR 00F0
ENCODING 240
SWIDTH 540 0
DWIDTH 9 0
BBX 10 17 0 0
BITMAP
0E00
3180
2040
1C40
0240
0240
0240
0E40
3040
4840
8840
8C40
8440
8040
8040
4040
3FC0
ENDCHAR
STARTCHAR 00F1
ENCODING 241
SWIDTH 600 0
DWIDTH 10 0
BBX 11 15 0 0
BITMAP
3080
CF80
F080
0F00
0000
FF00
8080
8440
8A40
8A20
8920
8920
8920
8920
79C0
ENDCHAR
STARTCHAR 00F2
ENCODING 242
SWIDTH 540 0
DWIDTH 9 0
BBX 10 15 0 0
BITMAP
1000
2C00
2300
1E00
0000
0E00
3180
4480
8D40
8E40
8640
8080
8080
4100
3E00
ENDCHAR
STARTCHAR 00F3
ENCODING 243
SWIDTH 540 0
DWIDTH 9 0
BBX 10 14 0 1
BITMAP
1E00
6100
3E00
0000
0E00
3180
4480
8D40
8E40
8640
8080
8080
4100
3E00
ENDCHAR
STARTCHAR 00F4
ENCODING 244
SWIDTH 540 0
DWIDTH 9 0
BBX 10 15 0 1
BITMAP
3F00
CCC0
F3C0
0000
0000
0E00
3180
4480
8D40
8E40
8640
8080
8080
4100
3E00
ENDCHAR
STARTCHAR 00F5
ENCODING 245
SWIDTH 540 0
DWIDTH 9 0
BBX 10 15 0 0
BITMAP
3000
CF80
7080
0F00
0000
0E00
3180
4480
8D40
8E40
8640
8080
8080
4100
3E00
ENDCHAR
STARTCHAR 00F6
ENCODING 246
SWIDTH 540 0
DWIDTH 9 0
BBX 10 15 0 0
BITMAP
6300
9280
9280
6100
0000
0E00
3180
4480
8D40
8E40
8440
8080
8080
4100
3E00
ENDCHAR
STARTCHAR 00F7
ENCODING 247
SWIDTH 480 0
DWIDTH 8 0
BBX 8 11 0 2
BITMAP
18
24
24
18
FF
81
FF
10
2C
24
18
ENDCHAR
STARTCHAR 00F8
ENCODING 248
SWIDTH 480 0
DWIDTH 8 0
BBX 11 11 -2 -1
BITMAP
07E0
1820
2240
46A0
4720
4320
4040
4040
4080
9F00
6000
ENDCHAR
STARTCHAR 00F9
ENCODING 249
SWIDTH 600 0
DWIDTH 10 0
BBX 11 14 0 0
BITMAP
0C00
1200
2180
1F00
C000
B9C0
8920
8920
8920
8A20
8A40
4440
2080
1F00
ENDCHAR
STARTCHAR 00FA
ENCODING 250
SWIDTH 600 0
DWIDTH 10 0
BBX 11 14 0 0
BITMAP
0300
0D00
1080
0F00
C000
B9C0
8920
8920
8920
8A20
8A40
4440
2080
1F00
ENDCHAR
STARTCHAR 00FB
ENCODING 251
SWIDTH 600 0
DWIDTH 10 0
BBX 11 15 0 0
BITMAP
0C00
7380
8E40
71C0
0000
C000
B9C0
8920
8920
8920
8A20
8A40
4440
2080
1F00
ENDCHAR
STARTCHAR 00FC
ENCODING 252
SWIDTH 600 0
DWIDTH 10 0
BBX 11 15 0 0
BITMAP
6180
5240
5240
2180
0000
E000
99C0
8920
8920
8920
8A20
8A40
4440
2080
1F00
ENDCHAR
STARTCHAR 00FD
ENCODING 253
SWIDTH 660 0
DWIDTH 11 0
BBX 12 21 -1 -7
BITMAP
0300
0C80
1180
0E00
0000
3000
C8F0
4890
4510
2520
2220
1040
1040
0840
0480
0880
0900
1100
1200
1200
0E00
ENDCHAR
STARTCHAR 00FF
ENCODING 255
SWIDTH 660 0
DWIDTH 11 0
BBX 12 22 0 -7
BITMAP
3180
4A40
4A40
3180
0000
0000
7080
9170
9120
4A20
4A40
2440
2040
1080
0880
0900
0900
1200
1200
1200
1400
0C00
ENDCHAR
STARTCHAR 0152
ENCODING 338
SWIDTH 1140 0
DWIDTH 19 0
BBX 23 17 0 -2
BITMAP
0003F0
03FC10
0C0010
1003E0
210400
410400
8147F0
81C010
800030
8003C0
800200
800200
402200
20E3FE
1F2002
002002
001FFE
ENDCHAR
STARTCHAR 0153
ENCODING 339
SWIDTH 960 0
DWIDTH 16 0
BBX 16 10 0 0
BITMAP
0E00
31BC
447B
8952
8E54
8468
8016
8019
4101
3EFE
ENDCHAR
STARTCHAR 0160
ENCODING 352
SWIDTH 540 0
DWIDTH 9 0
BBX 13 18 -2 0
BITMAP
3060
2FA0
1040
0F80
1F80
6078
4610
49F0
4410
2200
1180
0C40
0320
7090
8F10
8010
6020
1FC0
ENDCHAR
STARTCHAR 0161
ENCODING 353
SWIDTH 600 0
DWIDTH 10 0
BBX 11 15 -1 0
BITMAP
6040
5FC0
60C0
1F00
0000
3F80
CC60
93E0
8E00
81C0
6040
5F20
BF20
8040
7F80
ENDCHAR
STARTCHAR 0178
ENCODING 376
SWIDTH 720 0
DWIDTH 12 0
BBX 14 22 -1 -3
BITMAP
1840
24A0
24A0
1840
0000
FC00
843C
6244
2248
1148
1188
0890
0410
0420
0220
0120
0240
0240
0480
0480
0480
0F00
ENDCHAR
STARTCHAR 0192
ENCODING 402
SWIDTH 540 0
DWIDTH 9 0
BBX 15 22 -5 -7
BITMAP
0078
0186
0632
044C
0440
1C70
1010
1010
1C70
0440
0440
0440
0440
0440
0240
0240
0240
E240
9480
8C80
4080
3F00
ENDCHAR
STARTCHAR 02C6
ENCODING 710
SWIDTH 540 0
DWIDTH 9 0
BBX 10 4 0 11
BITMAP
1C00
E380
BE40
C1C0
ENDCHAR
STARTCHAR 02DC
ENCODING 732
SWIDTH 540 0
DWIDTH 9 0
BBX 9 4 0 11
BITMAP
7000
8F80
F080
0F00
ENDCHAR
STARTCHAR 2013
ENCODING 8211
SWIDTH 660 0
DWIDTH 11 0
BBX 11 3 0 6
BITMAP
7FE0
8020
FFE0
ENDCHAR
STARTCHAR 2014
ENCODING 8212
SWIDTH 480 0
DWIDTH 8 0
BBX 8 3 0 6
BITMAP
7F
81
FF
ENDCHAR
STARTCHAR 2018
ENCODING 8216
SWIDTH 240 0
DWIDTH 4 0
BBX 4 5 0 9
BITMAP
60
90
90
50
70
ENDCHAR
STARTCHAR 2019
ENCODING 8217
SWIDTH 240 0
DWIDTH 4 0
BBX 4 5 0 9
BITMAP
60
90
90
50
70
ENDCHAR
STARTCHAR 201A
ENCODING 8218
SWIDTH 180 0
DWIDTH 3 0
BBX 4 5 -1 0
BITMAP
60
90
90
50
70
ENDCHAR
STARTCHAR 201C
ENCODING 8220
SWIDTH 480 0
DWIDTH 8 0
BBX 9 5 -1 9
BITMAP
6300
9480
9480
5280
7380
ENDCHAR
STARTCHAR 201D
ENCODING 8221
SWIDTH 480 0
DWIDTH 8 0
BBX 9 5 -1 9
BITMAP
6300
9480
9480
5280
7380
ENDCHAR
STARTCHAR 201E
ENCODING 8222
SWIDTH 540 0
DWIDTH 9 0
BBX 9 5 -1 0
BITMAP
6300
9480
9480
5280
7380
ENDCHAR
STARTCHAR 2020
ENCODING 8224
SWIDTH 420 0
DWIDTH 7 0
BBX 7 8 0 4
BITMAP
10
30
EE
82
EE
30
10
10
ENDCHAR
STARTCHAR 2021
ENCODING 8225
SWIDTH 420 0
DWIDTH 7 0
BBX 7 11 0 1
BITMAP
10
30
EE
82
EE
28
EE
82
EE
30
10
ENDCHAR
STARTCHAR 2022
ENCODING 8226
SWIDTH 240 0
DWIDTH 4 0
BBX 4 4 0 6
BITMAP
60
90
90
60
ENDCHAR
STARTCHAR 2026
ENCODING 8230
SWIDTH 660 0
DWIDTH 11 0
BBX 12 4 0 0
BITMAP
6660
9990
9990
6660
ENDCHAR
STARTCHAR 2030
ENCODING 8240
SWIDTH 1020 0
DWIDTH 17 0
BBX 20 17 -2 -3
BITMAP
383E00
644400
424400
428800
649000
3D1000
022000
024000
044000
048000
08B8E0
116710
124310
224310
443CE0
440000
F80000
ENDCHAR
STARTCHAR 2039
ENCODING 8249
SWIDTH 480 0
DWIDTH 8 0
BBX 10 8 0 4
BITMAP
00C0
0740
18C0
E700
6300
1880
0680
0180
ENDCHAR
STARTCHAR 203A
ENCODING 8250
SWIDTH 480 0
DWIDTH 8 0
BBX 10 8 -1 4
BITMAP
C000
B800
4600
39C0
1180
6600
5800
6000
ENDCHAR
ENDFONT
